<?xml version="1.0" encoding="iso-8859-1"?>
<!-- Generator: Adobe Illustrator 19.0.0, SVG Export Plug-In . SVG Version: 6.00 Build 0)  -->
<svg version="1.1" id="Layer_1" xmlns="http://www.w3.org/2000/svg" xmlns:xlink="http://www.w3.org/1999/xlink" x="0px" y="0px"
	 viewBox="0 0 512 512" style="enable-background:new 0 0 512 512;" xml:space="preserve">
<g transform="translate(1 1)">
	<g>
		<path d="M511,255c0-35.99-7.542-70.298-21.099-101.447c-0.457-1.057-0.918-2.11-1.388-3.159c-0.155-0.343-0.311-0.686-0.467-1.028
			c-23.338-51.43-62.832-92.988-111.141-119.273c-0.082-0.045-0.165-0.09-0.247-0.135c-1.579-0.857-3.166-1.698-4.763-2.522
			c-0.274-0.142-0.546-0.287-0.82-0.428c-1.504-0.769-3.016-1.523-4.536-2.262c-1.338-0.653-2.687-1.287-4.038-1.917
			c-0.425-0.198-0.848-0.402-1.274-0.597c-1.366-0.628-2.742-1.239-4.121-1.844c-0.213-0.093-0.426-0.188-0.64-0.281
			c-18.721-8.15-38.586-14.118-59.272-17.586c-0.019-0.003-0.039-0.006-0.058-0.01c-1.709-0.286-3.423-0.558-5.144-0.81
			c-0.009-0.001-0.018-0.003-0.027-0.004c-4.594-0.672-9.227-1.217-13.895-1.639c-0.775-0.07-1.548-0.145-2.325-0.208
			c-1.012-0.082-2.028-0.153-3.043-0.223c-1.038-0.072-2.076-0.139-3.117-0.199c-0.885-0.05-1.771-0.098-2.659-0.139
			c-1.26-0.059-2.522-0.105-3.785-0.145c-0.711-0.023-1.421-0.05-2.134-0.067C259.008-0.97,257.006-1,255-1
			c-27.911,0-54.733,4.359-80.472,13.049C110.192,33.517,57.011,79.945,26.619,139.708c-0.785,0.484-1.48,1.081-2.019,1.799
			c-1.103,1.47-1.569,3.415-1.473,5.358C7.668,179.761-1,216.415-1,255c0,108.107,67.917,201.114,163.187,238.48
			c0.732,0.589,1.545,1.035,2.36,1.306c6.476,2.286,13.042,4.346,19.669,6.187c20.684,5.993,42.423,9.434,64.853,9.95
			c1.977,0.049,3.954,0.076,5.931,0.076c2.055,0,4.111-0.031,6.166-0.079c0.223-0.005,0.447-0.009,0.669-0.015
			c19.055-0.488,38.11-3.013,57.164-7.586c0.671-0.224,1.341-0.571,1.981-1.014C430.073,473.014,511,373.006,511,255z
			 M332.653,221.72c-2.56-0.853-5.12-1.707-8.533-1.707c-5.12,0-11.947,2.56-23.04,5.973c-2.56,0.853-4.267,1.707-5.973,2.56
			c-0.853-5.12-4.267-11.947-13.653-15.36c-5.12-1.707-8.533-0.853-11.093,0c-5.973,2.56-7.68,8.533-9.387,13.653
			c0,0.853,0,0.853,0,1.707c-3.413-2.56-5.12-6.827-6.827-11.093c-4.267-11.947-11.093-23.893-36.693-17.92
			c-7.68,1.707-12.8,2.56-16.213,3.413c6.827-11.093,18.773-30.72,9.387-52.907c0-0.853,0-0.853,0-0.853
			c5.12,1.707,12.8,5.12,17.92,7.68c18.773,8.533,30.72,13.653,39.253,10.24c10.24-3.413,17.067-11.947,19.627-23.04
			c2.56-11.947,0-23.893-7.68-32.427c-4.267-5.12-8.533-5.12-11.947-5.12c0,0-0.853,0-1.707,0c3.413-3.413,6.827-5.973,10.24-7.68
			c5.973-2.56,11.947-1.707,17.067,3.413c6.827,6.827,15.36,8.533,23.893,5.973c17.067-5.12,29.013-28.16,31.573-46.933
			c1.675-10.888,0.06-20.125-2.421-26.918c22.022,9.199,42.404,21.6,60.547,36.628c-2.431,8.639-7.701,25.674-16.304,48.142
			c-2.49-0.438-5.056-0.678-7.689-0.678c-23.893,0-42.667,18.773-42.667,42.667c0,14.845,7.25,27.709,18.469,35.327
			c-5.627,12.847-11.452,25.394-17.461,37.635C340.02,229.278,337.978,224.678,332.653,221.72z M249.88,146.627
			c9.387-0.853,14.507-10.24,17.92-17.067c0.853-1.707,1.707-2.56,2.56-4.267c2.56,4.267,2.56,9.387,1.707,14.507
			c-0.853,2.56-2.56,9.387-8.533,11.093C261.827,150.893,255.853,149.187,249.88,146.627z M212.333,35.693
			c1.707-6.827,0.853-11.093,0-15.36c33.28-5.12,68.267-4.267,100.693,4.267c-4.267,1.707-10.24,4.267-17.067,6.827
			c-10.24,4.267-23.04,9.387-28.16,9.387c-22.187,0-38.4,12.8-52.907,23.893c-16.213,12.8-31.573,23.893-53.76,17.92
			c2.56-5.12,9.387-9.387,18.773-14.507C193.56,61.293,208.92,52.76,212.333,35.693z M408.6,161.133c0,14.507-11.093,25.6-25.6,25.6
			c-14.507,0-25.6-11.093-25.6-25.6c0-14.507,11.093-25.6,25.6-25.6C397.507,135.533,408.6,146.627,408.6,161.133z M383,203.8
			c23.893,0,42.667-18.773,42.667-42.667c0-15.053-7.455-28.068-18.943-35.643c6.664-17.768,11.355-32.107,14.414-41.785
			c30.565,29.659,53.283,67.356,64.647,109.587c-0.383,4.768-0.385,10.798-0.385,17.334c0,8.533,0,22.187-1.707,29.867
			c-0.853-0.853-0.853-0.853-1.707-1.707c-7.68-10.24-19.627-23.04-32.427-19.627c-14.507,3.413-17.067,23.893-19.627,41.813
			c-0.853,4.267-1.707,10.24-2.56,11.947c-6.827,10.24-14.507,15.36-25.6,15.36c-19.239,0-40.735-15.814-52.466-31.878
			c8.727-17.244,17.076-35.069,25.023-53.451C377.123,203.508,380.022,203.8,383,203.8z M340.384,273.601
			c14.85,17.068,37.69,32.599,60.536,32.599c16.213,0,30.72-8.533,40.96-23.893c1.707-3.413,2.56-8.533,4.267-18.773
			c0.853-7.68,3.413-25.6,6.827-28.16c0,0,4.267,0,14.507,13.653c2.56,4.267,10.24,14.507,20.48,11.093
			c2.414-0.862,4.368-2.256,5.961-4.149c-0.16,39.608-10.091,77.016-27.488,109.942c-53.811-0.381-106.603-16.872-155.511-41.237
			C321.129,308.318,330.961,291.287,340.384,273.601z M144.162,43.527c-1.636,4.656-2.656,8.31-2.656,10.94
			c0,3.413,2.56,6.827,6.827,7.68s5.973-1.707,11.093-5.973c23.04-21.333,33.28-27.307,37.547-29.013
			c0,0.853-0.853,2.56-0.853,4.267c-1.707,9.387-12.8,14.507-23.893,20.48c-13.653,7.68-31.573,17.067-29.867,36.693
			c0,3.413,1.707,6.827,5.12,7.68c34.987,13.653,57.173-3.413,76.8-18.773c14.507-11.093,26.453-20.48,43.52-20.48
			c9.387,0,21.333-5.12,34.987-11.093c6.827-3.413,17.92-7.68,22.187-8.533c6.827,5.973,6.827,15.36,5.973,21.333
			C329.24,74.947,319,89.453,311.32,92.013c-1.707,0.853-3.413,0.853-5.973-1.707c-10.24-9.387-23.04-12.8-35.84-6.827
			c-18.773,8.533-31.573,31.573-30.72,55.467c0,1.707,0.853,2.56,1.707,4.267c-1.707-0.853-2.56-0.853-4.267-1.707
			C217.453,132.973,203.8,127,196.12,134.68c-6.827,7.68-2.56,17.92-0.853,22.187c5.973,14.507-1.707,27.307-7.68,37.547
			c-5.12,7.68-9.387,14.507-4.267,21.333c5.12,7.68,16.213,6.827,39.253,0.853c13.653-2.56,13.653-0.853,17.067,7.68
			c1.707,5.973,4.267,12.8,11.947,18.773c1.707,1.707,8.533,6.827,16.213,4.267c7.68-2.56,9.387-9.387,11.093-14.507
			c0.853-0.853,0.853-0.853,0.853-1.707c0.853,0,0.853,1.707,0.853,3.413c0.853,2.56,0.853,8.533,5.973,11.093
			c5.973,3.413,11.947,0.853,23.893-4.267c8.533-4.267,12.8-4.267,13.653-4.267c0.853,1.707,1.707,4.267,1.707,6.827
			c0.598,4.187,1.62,8.795,3.645,13.527c-10.87,20.647-22.259,40.374-34.078,59.181c-52.949-28.599-100.804-65.673-139.725-100.193
			c3.482-6.205,5.465-13.407,5.465-21.155c0-23.893-18.773-42.667-42.667-42.667c-7.876,0-15.188,2.05-21.463,5.641
			c-18.325-19.187-31.254-34.353-36.859-41.094C81.924,86.505,110.735,61.173,144.162,43.527z M281.453,372.76l13.653,25.6
			c1.707,2.56,4.267,4.267,7.68,4.267h50.347l-7.68,24.747l-27.307,22.187c-1.707,0.853-3.413,3.413-3.413,5.12l-5.942,33.107
			c-17.303,4.02-35.311,6.146-53.791,6.146c-26.396,0-51.823-4.346-75.613-12.344c10.001-8.318,20.063-17.255,29.617-26.829
			c6.03,3.221,12.965,5.039,20.397,5.039c23.893,0,42.667-18.773,42.667-42.667c0-9.544-3.002-18.267-8.123-25.307
			c5.257-6.692,10.439-13.545,15.547-20.549L281.453,372.76z M255,417.133c0,14.507-11.093,25.6-25.6,25.6
			c-14.507,0-25.6-11.093-25.6-25.6s11.093-25.6,25.6-25.6C243.907,391.533,255,402.627,255,417.133z M251.194,380.296
			c-6.347-3.709-13.779-5.829-21.794-5.829c-23.893,0-42.667,18.773-42.667,42.667c0,10.138,3.389,19.347,9.106,26.598
			c-8.834,8.532-17.715,16.55-26.798,24.205l-13.882-27.763c-1.707-2.56-4.267-5.12-6.827-5.12l-30.72-4.267L73.55,410.002
			c-2.169-2.534-4.297-5.105-6.361-7.728l-7.603-34.634l22.187-29.867l16.448-8.224c-0.056,0.159-0.132,0.338-0.235,0.544
			l1.707-0.853c0.853,0,0.853-0.853,1.707-0.853l1.707-0.853c0.162-0.097,0.312-0.201,0.467-0.303l50.733-11.644l21.333,15.36
			c0.853,0,1.707,0.853,2.56,0.853l31.573,10.24c0.853,0,1.707,0,2.56,0l27.307-0.853l26.01,19.641
			C260.882,367.452,256.061,373.941,251.194,380.296z M152.414,470.637c-13.414-6.43-26.139-14.083-38.042-22.801
			c0.227,0.016,0.454,0.017,0.681,0.017l28.16,3.413L152.414,470.637z M247.32,326.68c-0.853-0.853-3.413-1.707-5.12-1.707
			l-29.013,0.853l-29.013-9.387l-23.893-16.213c-1.707-1.707-4.267-2.56-6.827-1.707l-11.129,2.529
			c-1.276-1.262-2.969-2.107-5.084-2.529l-8.533-0.853c-1.707,0-3.413,0-5.12,0.853l-26.453,12.8l0,0
			c-0.195,0-0.343,0.048-0.469,0.117l-2.944,0.736c-1.417,0.567-2.545,1.42-3.397,2.457l-17.936,8.636
			c-1.707,0.853-2.56,1.707-3.413,2.56l-25.6,34.987c-0.586,0.586-1.061,1.277-1.411,2.029
			c-10.48-20.552-18.073-42.794-22.229-66.186c2.76-2.521,5.52-4.599,8.28-6.669c6.827-5.12,13.653-10.24,20.48-23.04
			c6.827-11.093,5.973-17.067,3.413-25.6c-0.853-5.12-2.56-11.093-1.707-22.187c0.853-14.507,0.853-18.773,0-23.04
			c-0.853-3.413-0.853-6.827,0-21.333c0.649-15.574-1.667-23.251-7.315-29.413c2.343-4.5,4.822-8.919,7.438-13.248
			c6.681,8.098,18.044,21.429,33.629,37.794c-5.139,7.047-8.152,15.785-8.152,25.347c0,23.893,18.773,42.667,42.667,42.667
			c9.904,0,18.922-3.233,26.095-8.712c39.242,34.874,87.747,72.421,141.653,101.688c-3.702,5.64-7.442,11.193-11.217,16.659
			L247.32,326.68z M118.467,220.867c-14.507,0-25.6-11.093-25.6-25.6c0-14.507,11.093-25.6,25.6-25.6s25.6,11.093,25.6,25.6
			C144.067,209.773,132.973,220.867,118.467,220.867z M33.226,166.355c0.114,2.059,0.087,4.534-0.092,7.578
			c-0.853,16.213-0.853,20.48,0,24.747c0.853,3.413,0.853,6.827,0,19.627c-0.853,13.653,0.853,21.333,2.56,27.307
			s1.707,7.68-1.707,13.653c-5.12,9.387-10.24,13.653-16.213,17.92c-0.2,0.15-0.412,0.313-0.618,0.469
			c-0.71-7.461-1.089-15.016-1.089-22.655C16.067,223.72,22.17,193.8,33.226,166.355z M327.276,482.679l3.671-22.025l27.307-22.187
			c0.853-1.707,1.707-2.56,2.56-4.267l11.093-37.547c0.853-2.56,0.853-5.12-0.853-7.68c-1.707-1.707-4.267-3.413-6.827-3.413h-56.32
			l-12.8-22.187c-0.853-0.853-1.707-1.707-2.56-2.56l-3.637-2.745c4.34-6.23,8.619-12.578,12.839-19.035
			c48.589,24.419,101.115,41.528,154.898,43.724C426.798,429.596,381.108,465.466,327.276,482.679z"/>
	</g>
</g>
<g>
</g>
<g>
</g>
<g>
</g>
<g>
</g>
<g>
</g>
<g>
</g>
<g>
</g>
<g>
</g>
<g>
</g>
<g>
</g>
<g>
</g>
<g>
</g>
<g>
</g>
<g>
</g>
<g>
</g>
</svg>
