<?xml version="1.0" ?><svg width="48px" height="48px" viewBox="0 0 48 48" data-name="Layer 1" id="Layer_1" xmlns="http://www.w3.org/2000/svg"><defs><style>
      .cls-1, .cls-3 {
        fill: none;
        stroke: #353535;
        stroke-width: 2px;
      }

      .cls-1 {
        stroke-linecap: round;
        stroke-linejoin: round;
      }

      .cls-2 {
        fill: #353535;
      }

      .cls-3 {
        stroke-miterlimit: 10;
      }
    </style></defs><title/><path class="cls-1" d="M12.50016,29l-2.62921.0519a8.729,8.729,0,0,1-8.87079-8.7284v-.3018a8.3648,8.3648,0,0,1,1.90109-5.37l.1137-.1379A23.39639,23.39639,0,0,1,15.46249,6.67986"/><path class="cls-1" d="M40.37144,38.114A8.00134,8.00134,0,0,1,25.00016,35"/><path class="cls-1" d="M17.92875,25a4.92858,4.92858,0,0,1-4.92859-4.9286"/><path class="cls-1" d="M20.00016,35l.42229.8446A33.885,33.885,0,0,1,23.76116,47"/><path class="cls-1" d="M29.74645,47a33.87775,33.87775,0,0,0-1.034-5.253"/><path class="cls-1" d="M16.92875,10A5.64548,5.64548,0,0,1,22.3291,6H23"/><path class="cls-1" d="M27.7466,25h-9.5c-2.76141,0-5.5,2.10942-5.5,4.87082a5,5,0,0,0,5,5h9s1.70239,1.1349,3.29369,2.1957a10.74328,10.74328,0,0,0,5.96,1.8043A10.96518,10.96518,0,0,0,46.9997,28.12642L47,26.05472a15.27948,15.27948,0,0,0-.8732-5.093q-.244-.6906-.55234-1.35317"/><circle class="cls-2" cx="16.1145" cy="12.97726" r="1" transform="translate(-4.40407 15.63712) rotate(-46.2312)"/><circle class="cls-2" cx="13" cy="17" r="1"/><path class="cls-1" d="M22.30369,28.05378A5.0014,5.0014,0,0,0,17.69662,25"/><circle class="cls-2" cx="23" cy="30.97726" r="1" transform="translate(-15.28008 26.1579) rotate(-46.2312)"/><circle class="cls-2" cx="31" cy="25" r="1"/><path class="cls-1" d="M43,23.99994a4,4,0,0,1,4,4"/><g><g><rect class="cls-3" height="12" width="12" x="31" y="4"/><line class="cls-3" x1="34" x2="36" y1="12" y2="12"/><line class="cls-3" x1="38" x2="40" y1="12" y2="12"/><line class="cls-3" x1="34" x2="36" y1="8" y2="8"/><line class="cls-3" x1="38" x2="40" y1="8" y2="8"/></g><line class="cls-3" x1="37" x2="37" y1="16" y2="21"/><line class="cls-3" x1="41" x2="41" y1="16" y2="21"/><line class="cls-3" x1="31" x2="26" y1="6" y2="6"/><line class="cls-3" x1="31" x2="26" y1="10" y2="10"/><line class="cls-3" x1="31" x2="26" y1="14" y2="14"/><line class="cls-3" x1="33" x2="33" y1="16" y2="21"/><line class="cls-3" x1="43" x2="48" y1="6" y2="6"/><line class="cls-3" x1="43" x2="48" y1="10" y2="10"/><line class="cls-3" x1="43" x2="48" y1="14" y2="14"/><line class="cls-3" x1="40.99999" x2="40.99993" y1="4" y2="-0.00004"/><line class="cls-3" x1="36.99999" x2="36.99993" y1="4" y2="-0.00004"/><line class="cls-3" x1="32.99999" x2="32.99993" y1="4" y2="-0.00004"/></g></svg>