<?xml version="1.0" encoding="iso-8859-1"?>
<!-- Generator: Adobe Illustrator 19.0.0, SVG Export Plug-In . SVG Version: 6.00 Build 0)  -->
<svg version="1.1" id="Layer_1" xmlns="http://www.w3.org/2000/svg" xmlns:xlink="http://www.w3.org/1999/xlink" x="0px" y="0px"
	 viewBox="0 0 491.52 491.52" style="enable-background:new 0 0 491.52 491.52;" xml:space="preserve">
<g>
	<g>
		<path d="M410.905,192.2C409.454,85.97,321.715,0,214.065,0C105.52,0,17.21,87.425,17.26,193.89
			c-0.27,2.785-6.06,68.895,41.085,136.085c20.27,28.895,33.38,56.535,40.085,84.5c4.55,18.955,7.85,51.355,7.85,77.045h20.48
			c0-27.095-3.54-61.505-8.41-81.825c-7.32-30.515-21.46-60.44-43.24-91.48C32.495,257.48,37.59,196.455,37.69,194.88
			c0-96.165,79.12-174.4,176.375-174.4s176.38,78.235,176.38,174.4v2.645l49.415,89.195h-44.06v92.16h-81.92v112.64h20.48v-92.16
			h81.92V307.2h58.34L410.905,192.2z"/>
	</g>
</g>
<g>
	<g>
		<path d="M354.84,220.6v-52.08l-33.435-5.57c-2.37-8.245-5.67-16.185-9.86-23.735l19.72-27.61l-36.825-36.83L266.83,94.5
			c-7.55-4.19-15.49-7.49-23.735-9.86L237.52,51.2h-52.075l-5.575,33.44c-8.245,2.37-16.185,5.67-23.735,9.86l-27.61-19.725
			L91.7,111.605l19.72,27.61c-4.19,7.55-7.49,15.49-9.86,23.73l-33.44,5.575v52.08l33.44,5.575c2.37,8.24,5.67,16.18,9.86,23.73
			l-19.72,27.61l36.825,36.83l27.61-19.725c7.55,4.19,15.49,7.49,23.735,9.86l5.575,33.44h52.075l5.575-33.44
			c8.245-2.37,16.185-5.67,23.735-9.86l27.61,19.725l36.825-36.83l-19.72-27.61c4.19-7.55,7.49-15.49,9.86-23.735L354.84,220.6z
			 M304.625,208.205l-1.495,6.755c-2.345,10.6-6.53,20.68-12.44,29.96l-3.715,5.83l17.54,24.555l-12.285,12.29l-24.565-17.545
			l-5.83,3.715c-9.27,5.91-19.35,10.095-29.96,12.45l-6.75,1.495l-4.955,29.73h-17.375l-4.955-29.73l-6.75-1.495
			c-10.61-2.355-20.69-6.54-29.96-12.45l-5.83-3.715l-24.565,17.545l-12.285-12.29l17.54-24.555l-3.715-5.83
			c-5.91-9.28-10.095-19.36-12.44-29.96l-1.495-6.755l-29.74-4.955v-17.38l29.74-4.955l1.495-6.755
			c2.345-10.6,6.53-20.68,12.44-29.96l3.715-5.83l-17.54-24.555l12.285-12.29l24.565,17.545l5.83-3.715
			c9.27-5.91,19.35-10.095,29.96-12.45l6.75-1.495l4.955-29.73h17.375l4.955,29.73l6.75,1.495c10.61,2.355,20.69,6.54,29.96,12.45
			l5.83,3.715l24.565-17.545l12.285,12.29l-17.54,24.555l3.715,5.83c5.91,9.28,10.095,19.36,12.44,29.96l1.495,6.755l29.735,4.955
			v17.38L304.625,208.205z"/>
	</g>
</g>
<g>
	<g>
		<path d="M211.479,132.23c-34.37,0-62.33,27.96-62.33,62.33s27.96,62.33,62.33,62.33c34.37,0,62.335-27.96,62.335-62.33
			S245.85,132.23,211.479,132.23z M211.479,236.41c-23.075,0-41.85-18.775-41.85-41.85s18.775-41.85,41.85-41.85
			c23.08,0,41.855,18.775,41.855,41.85S234.56,236.41,211.479,236.41z"/>
	</g>
</g>
<g>
</g>
<g>
</g>
<g>
</g>
<g>
</g>
<g>
</g>
<g>
</g>
<g>
</g>
<g>
</g>
<g>
</g>
<g>
</g>
<g>
</g>
<g>
</g>
<g>
</g>
<g>
</g>
<g>
</g>
</svg>
